<svg version="1.2" xmlns="http://www.w3.org/2000/svg" viewBox="0 0 1640 173" width="1640" height="173">
	<style>
		.s0 { fill: #ffffff } 
		.s1 { fill: #00a99d } 
	</style>
	<path id="&lt;Path&gt;" class="s0" d="m220.2 114.8l0.84 2.29h-49.81l0.83-2.29 0.42-1.14h47.31z"/>
	<path id="&lt;Path&gt;" class="s0" d="m216.46 104.53l1.25 3.42h-43.16l1.25-3.42z"/>
	<path id="&lt;Path&gt;" class="s0" d="m226.44 131.94l1.24 3.42h-63.1l1.25-3.42z"/>
	<path id="&lt;Path&gt;" class="s0" d="m236.83 160.5h-3.65l-0.01-0.02-9.13-25.11-1.25-3.42-2.08-5.71-0.41-1.14-0.84-2.29-0.41-1.14-1.66-4.57-0.84-2.29-0.41-1.14-0.84-2.29-1.24-3.41-1.25-3.43v-0.01l-1.25-3.43-15.43-42.4-1.82-5.01 1.82-5.01 1.82 5.01 17.26 47.41 1.25 3.43v0.01l1.24 3.43 1.25 3.41 0.83 2.29 0.41 1.14 0.84 2.29 1.66 4.57 0.42 1.14 0.83 2.29 0.42 1.14 2.08 5.71 1.24 3.42 9.14 25.11z"/>
	<path id="&lt;Path&gt;" class="s0" d="m258.71 160.48h-3.65l-9.14-25.11-1.24-3.42-2.08-5.71-0.42-1.14-0.83-2.29-0.41-1.14-1.66-4.57-0.84-2.29-0.41-1.14-0.84-2.29-1.24-3.41-1.25-3.43v-0.01l-1.25-3.43-26.38-72.46-1.82-5.02 1.82-5 1.83 5 28.2 77.48 1.24 3.43v0.01l1.25 3.43 1.24 3.41 0.84 2.29 0.41 1.14 0.84 2.29 1.66 4.57 0.42 1.14 0.83 2.29 0.42 1.14 2.07 5.71 1.25 3.42z"/>
	<path id="&lt;Path&gt;" class="s0" d="m269.65 160.48h-3.65l-9.14-25.11-1.24-3.42-2.08-5.71-0.42-1.14-0.83-2.29-0.42-1.14-1.66-4.57-0.83-2.29-0.42-1.14-0.83-2.29-1.24-3.41-1.25-3.43v-0.01l-1.25-3.43-31.85-87.5-1.81-4.99h3.63v-0.01l0.01 0.01 33.66 92.49 1.25 3.43 0.01 0.01 1.24 3.43 1.24 3.41 0.84 2.29 0.41 1.14 0.84 2.29 1.66 4.57 0.41 1.14 0.84 2.29 0.41 1.14 2.08 5.71 1.25 3.42z"/>
	<path id="&lt;Path&gt;" class="s0" d="m247.76 160.5h-3.64l-0.01-0.02-9.14-25.11-1.24-3.42-2.08-5.71-0.42-1.14-0.83-2.29-0.42-1.14-1.66-4.57-0.83-2.29-0.41-1.14-0.84-2.29-1.24-3.41-1.25-3.43v-0.01l-1.25-3.43-20.9-57.42-1.82-5.01 1.82-5.01 1.82 5.01 22.73 62.43 1.24 3.43 0.01 0.01 1.24 3.43 1.24 3.41 0.84 2.29 0.41 1.14 0.84 2.29 1.66 4.57 0.42 1.14 0.83 2.29 0.41 1.14 2.08 5.71 1.25 3.42 9.14 25.11z"/>
	<path id="&lt;Path&gt;" class="s0" d="m214.36 8.6l-10.93 30.06-1.83 5-26.73 73.43-15.78 43.38h-3.65l55.28-151.87z"/>
	<path id="&lt;Path&gt;" class="s0" d="m192.48 8.6l-1.82 5-3.65 10.02-1.82 5-26.38 72.47-1.25 3.43v0.01l-1.24 3.42-1.25 3.42-0.83 2.29-0.41 1.14-0.84 2.29-1.66 4.57-0.42 1.14-0.83 2.28-0.42 1.15-2.07 5.71-1.25 3.42-9.14 25.11h-3.64l9.13-25.11 1.25-3.42 2.08-5.71 0.41-1.15 0.84-2.28 0.41-1.14 1.66-4.57 0.84-2.29 0.41-1.14 0.84-2.29 1.24-3.42 1.24-3.42 0.01-0.01 1.25-3.43 28.2-77.48 1.82-5.01 3.64-10z"/>
	<path id="&lt;Path&gt;" class="s0" d="m181.54 8.6l-1.82 4.99-31.84 87.5-1.25 3.43-0.01 0.01-1.25 3.42-1.24 3.42-0.84 2.29-0.41 1.14-0.83 2.29-1.66 4.57-0.42 1.14-0.83 2.28-0.41 1.15-2.08 5.71-1.25 3.42-9.14 25.11h-3.65l9.14-25.11 1.25-3.42 2.08-5.71 0.41-1.15 0.84-2.28 0.41-1.14 1.66-4.57 0.84-2.29 0.41-1.14 0.84-2.29 1.24-3.42 1.25-3.42v-0.01l1.25-3.43 33.66-92.49z"/>
	<path id="&lt;Path&gt;" class="s0" d="m203.43 8.6l-1.83 4.99-3.65 10.04-1.82 5.01-3.64 10.01-1.83 5.01-20.9 57.43-1.24 3.43-0.01 0.01-1.25 3.42-1.24 3.42-0.84 2.29-0.41 1.14-0.84 2.29-1.66 4.57-0.41 1.14-0.83 2.28-0.42 1.15-2.07 5.71-1.25 3.42-9.14 25.11h-3.64l9.13-25.11 1.25-3.42 2.08-5.71 0.41-1.15 0.84-2.28 0.41-1.14 1.66-4.57 0.84-2.29 0.41-1.14 0.84-2.29 1.24-3.42 1.25-3.42v-0.01l1.25-3.43 22.72-62.44 1.82-5.01 3.65-10.01 1.82-5.01 3.65-10.02z"/>
	<path id="&lt;Path&gt;" fill-rule="evenodd" class="s0" d="m508.19 8.61v151.89h-3.43v-151.89z"/>
	<path id="&lt;Path&gt;" fill-rule="evenodd" class="s0" d="m528.76 8.59v131.33h-3.43v-131.33z"/>
	<path id="&lt;Path&gt;" fill-rule="evenodd" class="s0" d="m539.04 8.61v121.03h-3.43v-121.03z"/>
	<path id="&lt;Path&gt;" fill-rule="evenodd" class="s0" d="m518.47 8.59v141.61h-3.42v-141.61z"/>
	<path id="&lt;Path&gt;" fill-rule="evenodd" class="s0" d="m608.55 157.06v3.43h-103.77v-3.43z"/>
	<path id="&lt;Path&gt;" fill-rule="evenodd" class="s0" d="m608.53 136.5v3.43h-83.2v-3.43z"/>
	<path id="&lt;Path&gt;" fill-rule="evenodd" class="s0" d="m608.55 126.22v3.42h-72.94v-3.42z"/>
	<path id="&lt;Path&gt;" fill-rule="evenodd" class="s0" d="m608.53 146.79v3.42h-93.48v-3.42z"/>
	<path id="&lt;Path&gt;" fill-rule="evenodd" class="s0" d="m1564.06 29.13v3.42h-25.12v-3.42z"/>
	<path id="&lt;Path&gt;" class="s0" d="m1640 84.52c0 41.94-34 75.94-75.94 75.95v-3.43c40.05 0 72.52-32.47 72.52-72.52 0-40.05-32.47-72.52-72.52-72.52v-3.43c41.94 0 75.94 34 75.94 75.95z"/>
	<path id="&lt;Path&gt;" class="s0" d="m1619.44 84.52c0 30.59-24.79 55.39-55.38 55.39v-3.43c28.69 0 51.96-23.27 51.96-51.96 0-28.7-23.27-51.96-51.96-51.96v-3.43c30.59 0 55.38 24.8 55.38 55.39z"/>
	<path id="&lt;Path&gt;" fill-rule="evenodd" class="s0" d="m1564.06 8.57v3.43h-45.68v-3.43z"/>
	<path id="&lt;Path&gt;" class="s0" d="m1609.17 84.52c0 24.91-20.2 45.11-45.11 45.11v-3.43c23.02 0 41.68-18.66 41.68-41.68q0-1.08-0.05-2.15 0-0.05 0-0.11-0.03-0.39-0.06-0.77 0-0.09-0.01-0.17 0-0.05-0.01-0.11-0.02-0.38-0.07-0.76 0-0.09-0.01-0.17-0.1-1.04-0.26-2.07-0.16-1.03-0.37-2.05c-3.87-19.02-20.68-33.33-40.84-33.33v-3.43c24.91 0 45.11 20.2 45.11 45.12z"/>
	<path id="&lt;Path&gt;" fill-rule="evenodd" class="s0" d="m1521.8 8.57v151.9h-3.43v-151.9z"/>
	<path id="&lt;Path&gt;" fill-rule="evenodd" class="s0" d="m1542.36 29.14v110.77h-3.42v-110.77z"/>
	<path id="&lt;Path&gt;" class="s0" d="m1629.72 84.52c0 36.26-29.4 65.66-65.66 65.66v-3.42c34.37 0 62.24-27.87 62.24-62.24 0-34.38-27.87-62.25-62.24-62.25v-3.42c36.26 0 65.66 29.4 65.66 65.67z"/>
	<path id="&lt;Path&gt;" fill-rule="evenodd" class="s0" d="m1552.65 39.42v90.2h-3.43v-90.2z"/>
	<path id="&lt;Path&gt;" fill-rule="evenodd" class="s0" d="m1532.08 18.85v131.34h-3.43v-131.34z"/>
	<path id="&lt;Path&gt;" fill-rule="evenodd" class="s0" d="m1564.06 136.49v3.42h-25.12v-3.42z"/>
	<path id="&lt;Path&gt;" fill-rule="evenodd" class="s0" d="m1564.06 126.2v3.43h-14.84v-3.43z"/>
	<path id="&lt;Path&gt;" fill-rule="evenodd" class="s0" d="m1564.06 39.4v3.43h-14.84v-3.43z"/>
	<path id="&lt;Path&gt;" fill-rule="evenodd" class="s0" d="m1564.06 18.85v3.43h-35.41v-3.43z"/>
	<path id="&lt;Path&gt;" fill-rule="evenodd" class="s0" d="m1564.06 157.04v3.43h-45.68v-3.43z"/>
	<path id="&lt;Path&gt;" class="s0" d="m1564.05 146.76v3.42l-35.4 0.01v-3.42z"/>
	<path id="&lt;Path&gt;" fill-rule="evenodd" class="s0" d="m441.96 8.57v151.9h-3.43v-151.9z"/>
	<path id="&lt;Path&gt;" fill-rule="evenodd" class="s0" d="m462.52 8.55v151.9h-3.42v-151.9z"/>
	<path id="&lt;Path&gt;" fill-rule="evenodd" class="s0" d="m472.8 8.57v151.89h-3.42v-151.89z"/>
	<path id="&lt;Path&gt;" fill-rule="evenodd" class="s0" d="m452.23 8.55v151.9h-3.42v-151.9z"/>
	<path id="&lt;Path&gt;" fill-rule="evenodd" class="s0" d="m643.89 8.59v151.88h-3.43v-151.88z"/>
	<path id="&lt;Path&gt;" fill-rule="evenodd" class="s0" d="m664.46 8.57v151.9h-3.43v-151.9z"/>
	<path id="&lt;Path&gt;" fill-rule="evenodd" class="s0" d="m674.74 8.59v151.88h-3.43v-151.88z"/>
	<path id="&lt;Path&gt;" fill-rule="evenodd" class="s0" d="m654.17 8.57v151.9h-3.43v-151.9z"/>
	<path id="&lt;Path&gt;" fill-rule="evenodd" class="s0" d="m1313.81 157.07v3.42h-113.41v-3.42z"/>
	<path id="&lt;Path&gt;" fill-rule="evenodd" class="s0" d="m1313.8 136.49v3.43h-92.84v-3.43z"/>
	<path id="&lt;Path&gt;" fill-rule="evenodd" class="s0" d="m1313.81 126.21v3.43h-82.58v-3.43z"/>
	<path id="&lt;Path&gt;" fill-rule="evenodd" class="s0" d="m1313.8 146.78v3.43h-103.13v-3.43z"/>
	<path id="&lt;Path&gt;" fill-rule="evenodd" class="s0" d="m1313.81 39.45v3.42h-82.58v-3.42z"/>
	<path id="&lt;Path&gt;" fill-rule="evenodd" class="s0" d="m1313.8 18.87v3.43h-103.13v-3.43z"/>
	<path id="&lt;Path&gt;" fill-rule="evenodd" class="s0" d="m1313.81 8.59v3.43h-113.41v-3.43z"/>
	<path id="&lt;Path&gt;" fill-rule="evenodd" class="s0" d="m1313.8 29.16v3.43h-92.84v-3.43z"/>
	<path id="&lt;Path&gt;" fill-rule="evenodd" class="s0" d="m1203.81 8.56v151.9h-3.42v-151.9z"/>
	<path id="&lt;Path&gt;" fill-rule="evenodd" class="s0" d="m1224.39 29.16v110.76h-3.43v-110.76z"/>
	<path id="&lt;Path&gt;" fill-rule="evenodd" class="s0" d="m1234.66 39.45v90.19h-3.43v-90.19z"/>
	<path id="&lt;Path&gt;" fill-rule="evenodd" class="s0" d="m1214.09 18.87v131.34h-3.42v-131.34z"/>
	<path id="&lt;Path&gt;" fill-rule="evenodd" class="s0" d="m1304.17 98.26v3.42h-72.94v-3.42z"/>
	<path id="&lt;Path&gt;" fill-rule="evenodd" class="s0" d="m1304.16 77.68v3.43h-72.93v-3.43z"/>
	<path id="&lt;Path&gt;" fill-rule="evenodd" class="s0" d="m1304.17 67.4v3.43h-72.94v-3.43z"/>
	<path id="&lt;Path&gt;" fill-rule="evenodd" class="s0" d="m1304.16 87.97v3.43h-72.93v-3.43z"/>
	<path id="&lt;Path&gt;" class="s0" d="m1214.09 157.07v3.39h-3.42v-3.39z"/>
	<path id="&lt;Path&gt;" fill-rule="evenodd" class="s0" d="m45.68 8.57v3.43h-45.68v-3.43z"/>
	<path id="&lt;Path&gt;" class="s0" d="m109.12 71.98c0 34.94-28.59 63.39-63.38 63.39 0 0 0-3.43 0-3.43 0 0.21 7.48-0.46 8.16-0.55 2.67-0.36 5.23-0.93 7.82-1.65 5.08-1.41 9.96-3.5 14.49-6.18 4.47-2.65 8.59-5.89 12.23-9.59 3.64-3.71 6.8-7.89 9.37-12.41 2.61-4.58 4.6-9.51 5.92-14.62 1.52-5.94 2.13-12 1.89-18.12-0.09-2.49-0.34-4.98-0.82-7.43-0.45-2.36-0.96-4.91-1.86-7.15-1.35-4.37-3.2-8.58-5.51-12.53-4.52-7.73-10.81-14.37-18.22-19.39q-0.01 0-0.02-0.01c-3.96-2.68-8.23-4.89-12.7-6.57-4.57-1.7-9.35-2.84-14.2-3.37q-3.28-0.37-6.58-0.37h-0.05v-3.42h0.02c34.99 0.01 63.44 28.4 63.44 63.4z"/>
	<path id="&lt;Path&gt;" fill-rule="evenodd" class="s0" d="m45.68 18.85v3.43h-35.4v-3.43z"/>
	<path id="&lt;Path&gt;" class="s0" d="m98.76 71.96c0 29.33-23.77 53.1-53.1 53.1v-3.42c27.43 0 49.68-22.25 49.68-49.68 0-27.43-22.24-49.67-49.66-49.68h-0.02v-3.43h0.02c29.32 0.02 53.08 23.79 53.08 53.11z"/>
	<path id="&lt;Path&gt;" fill-rule="evenodd" class="s0" d="m45.68 29.14v3.43h-25.11v-3.43z"/>
	<path id="&lt;Path&gt;" fill-rule="evenodd" class="s0" d="m13.7 18.85v85.65h-3.42v-85.65z"/>
	<path id="&lt;Path&gt;" class="s0" d="m13.7 104.51l0.08 55.98h-3.42l-0.08-55.98z"/>
	<path id="&lt;Path&gt;" class="s0" d="m3.42 8.57l0.09 151.9h-3.43l-0.08-151.9z"/>
	<path id="&lt;Path&gt;" fill-rule="evenodd" class="s0" d="m23.99 29.14v75.36h-3.42v-75.36z"/>
	<path id="&lt;Path&gt;" class="s0" d="m23.99 104.51l0.08 55.98h-3.42l-0.08-55.98z"/>
	<path id="&lt;Path&gt;" fill-rule="evenodd" class="s0" d="m34.27 39.42v65.08h-3.42v-65.08z"/>
	<path id="&lt;Path&gt;" class="s0" d="m34.27 111.34v3.43h-3.42v-3.43z"/>
	<path id="&lt;Path&gt;" class="s0" d="m34.27 121.63v3.43h-3.42v-3.43z"/>
	<path id="&lt;Path&gt;" class="s0" d="m34.27 104.5l0.08 55.99h-3.42l-0.08-55.99z"/>
	<path id="&lt;Path&gt;" fill-rule="evenodd" class="s0" d="m45.74 131.94v3.43h-14.81v-3.43z"/>
	<path id="&lt;Path&gt;" fill-rule="evenodd" class="s0" d="m45.65 111.34v3.43h-14.8v-3.43z"/>
	<path id="&lt;Path&gt;" fill-rule="evenodd" class="s0" d="m45.66 101.07v3.43h-14.81v-3.43z"/>
	<path id="&lt;Path&gt;" fill-rule="evenodd" class="s0" d="m45.65 121.63v3.43h-14.8v-3.43z"/>
	<path id="&lt;Path&gt;" fill-rule="evenodd" class="s0" d="m45.68 39.42v3.43h-14.83v-3.43z"/>
	<path id="&lt;Path&gt;" class="s0" d="m78.21 71.96c0 17.98-14.58 32.55-32.55 32.55v-3.43c16.08 0 29.12-13.04 29.12-29.12 0-16.08-13.03-29.11-29.1-29.12h-0.02v-3.43c17.97 0 32.55 14.57 32.55 32.55z"/>
	<path id="&lt;Path&gt;" class="s0" d="m88.48 71.96c0 23.65-19.17 42.83-42.82 42.83v-3.43c21.76 0 39.4-17.64 39.4-39.4 0-21.75-17.63-39.39-39.38-39.4h-0.02v-3.43c23.65 0 42.82 19.17 42.82 42.83z"/>
	<path id="&lt;Path&gt;" class="s0" d="m373.73 8.59h-3.64l-0.01 0.02-9.14 25.11-1.24 3.42-2.5 6.85-1.25 3.43-2.49 6.86-1.25 3.43-2.49 6.85-1.25 3.43-15.43 42.4-1.82 5.01 1.82 5.01 1.82-5.01 17.25-47.41 1.25-3.43 2.49-6.85 1.25-3.43 2.5-6.86 1.25-3.43 2.49-6.85 1.25-3.42 9.13-25.11z"/>
	<path id="&lt;Path&gt;" class="s0" d="m395.61 8.61h-3.64l-9.14 25.11-1.25 3.42-2.49 6.85-1.25 3.43-2.5 6.86-1.25 3.43-2.48 6.85-1.25 3.43-26.38 72.46-1.82 5.02 1.82 5 1.82-5 28.2-77.48 1.25-3.43 2.49-6.85 1.25-3.43 2.5-6.86 1.25-3.43 2.49-6.85 1.25-3.42z"/>
	<path id="&lt;Path&gt;" class="s0" d="m406.55 8.61h-3.64l-9.14 25.11-1.25 3.42-2.49 6.85-1.25 3.43-2.5 6.86-1.25 3.43-2.49 6.85-1.25 3.43-31.84 87.5-1.82 4.99h3.65l33.66-92.49 1.25-3.43 2.49-6.85 1.25-3.43 2.5-6.86 1.25-3.43 2.49-6.85 1.24-3.42z"/>
	<path id="&lt;Path&gt;" class="s0" d="m384.67 8.59h-3.65v0.02l-9.14 25.11-1.25 3.42-2.49 6.85-1.25 3.43-2.5 6.86-1.24 3.43-2.5 6.85-1.24 3.43-20.91 57.43-1.82 5 1.82 5.01 1.83-5.01 22.72-62.43 1.25-3.43 2.49-6.85 1.25-3.43 2.5-6.86 1.25-3.43 2.49-6.85 1.25-3.42 9.13-25.11z"/>
	<path id="&lt;Path&gt;" class="s0" d="m351.27 160.48l-33.66-92.49-1.25-3.43-2.5-6.85-1.25-3.43-2.49-6.86-1.25-3.43-2.49-6.85-1.25-3.42-9.14-25.11h-3.65l9.14 25.11 1.25 3.42 2.49 6.85 1.25 3.43 2.5 6.86 1.25 3.43 2.49 6.85 1.25 3.43 33.66 92.49z"/>
	<path id="&lt;Path&gt;" class="s0" d="m329.38 160.48l-1.82-5-3.65-10.02-1.82-5-26.37-72.47-1.25-3.43-2.49-6.85-1.25-3.43-2.5-6.86-1.25-3.43-2.49-6.85-1.25-3.42-9.13-25.11h-3.65l9.14 25.11 1.24 3.42 2.5 6.85 1.24 3.43 2.5 6.86 1.25 3.43 2.49 6.85 1.25 3.43 28.2 77.48 1.82 5 3.65 10.01z"/>
	<path id="&lt;Path&gt;" class="s0" d="m318.16 160.48l-1.82-4.99-31.84-87.5-1.25-3.43-2.5-6.85-1.25-3.43-2.49-6.86-1.25-3.43-2.49-6.85-1.25-3.42-9.14-25.11h-3.65l9.14 25.11 1.25 3.42 2.49 6.85 1.25 3.43 2.5 6.86 1.25 3.43 2.49 6.85 1.25 3.43 33.66 92.49z"/>
	<path id="&lt;Path&gt;" class="s0" d="m340.33 160.48l-1.82-4.99-3.65-10.04-1.82-5.01-3.65-10.01-1.82-5.01-20.91-57.43-1.24-3.43-2.5-6.85-1.24-3.43-2.5-6.86-1.25-3.43-2.49-6.85-1.25-3.42-9.14-25.11h-3.64l9.14 25.11 1.24 3.42 2.5 6.85 1.25 3.43 2.49 6.86 1.25 3.43 2.49 6.85 1.25 3.43 22.72 62.44 1.83 5 3.64 10.02 1.83 5.01 3.64 10.02z"/>
	<path id="&lt;Path&gt;" fill-rule="evenodd" class="s0" d="m1349.2 8.57v151.9h-3.43v-151.9z"/>
	<path id="&lt;Path&gt;" class="s0" d="m1369.77 8.57v151.9h-3.43v-151.9h3.42z"/>
	<path id="&lt;Path&gt;" fill-rule="evenodd" class="s0" d="m1380.04 8.57v151.89h-3.42v-151.89z"/>
	<path id="&lt;Path&gt;" fill-rule="evenodd" class="s0" d="m1359.48 8.57v151.9h-3.43v-151.9z"/>
	<path id="&lt;Path&gt;" fill-rule="evenodd" class="s0" d="m1455.55 8.57v151.9h-3.43v-151.9z"/>
	<path id="&lt;Path&gt;" fill-rule="evenodd" class="s0" d="m1476.12 8.57v151.9h-3.43v-151.9z"/>
	<path id="&lt;Path&gt;" fill-rule="evenodd" class="s0" d="m1486.39 8.57v151.89h-3.42v-151.89z"/>
	<path id="&lt;Path&gt;" fill-rule="evenodd" class="s0" d="m1465.83 8.57v151.9h-3.43v-151.9z"/>
	<path id="&lt;Path&gt;" class="s0" d="m1455.55 116.4v4.89l-3.43-4.9-72.07-102.92-0.01-0.01-3.41-4.88h-0.01v-0.01h3.42l0.01 0.01 72.07 102.92z"/>
	<path id="&lt;Path&gt;" class="s0" d="m1452.12 126.18l3.43 4.89v4.89l-3.43-4.9-72.07-102.92-3.42-4.89v-4.89l3.42 4.89z"/>
	<path id="&lt;Path&gt;" class="s0" d="m1465.83 150.64v-19.56"/>
	<path id="&lt;Path&gt;" class="s0" d="m1472.69 140.87v19.57l-0.01-0.01"/>
	<path id="&lt;Path&gt;" class="s0" d="m1452.12 140.87l3.43 4.9v4.88l-3.43-4.89-72.07-102.93-3.42-4.89v-4.89l3.42 4.89z"/>
	<path id="&lt;Path&gt;" class="s0" d="m1455.55 160.47h-3.42l-0.01-0.01-0.02-0.03-72.05-102.9-3.42-4.89v-4.89l3.42 4.89 72.07 102.93 3.4 4.86z"/>
	<path id="&lt;Path&gt;" class="s0" d="m1380.96 8.57h-0.92"/>
	<path id="&lt;Path&gt;" class="s0" d="m1376.62 8.57h-0.31"/>
	<path id="&lt;Path&gt;" fill-rule="evenodd" class="s0" d="m894.01 8.58v151.9h-3.43v-151.9z"/>
	<path id="&lt;Path&gt;" class="s0" d="m914.58 8.59v151.89h-3.43v-151.9h3.42z"/>
	<path id="&lt;Path&gt;" fill-rule="evenodd" class="s0" d="m924.85 8.58v151.9h-3.42v-151.9z"/>
	<path id="&lt;Path&gt;" fill-rule="evenodd" class="s0" d="m904.29 8.58v151.9h-3.43v-151.9z"/>
	<path id="&lt;Path&gt;" fill-rule="evenodd" class="s0" d="m1000.36 8.58v151.9h-3.43v-151.9z"/>
	<path id="&lt;Path&gt;" fill-rule="evenodd" class="s0" d="m1020.93 8.58v151.9h-3.43v-151.9z"/>
	<path id="&lt;Path&gt;" fill-rule="evenodd" class="s0" d="m1031.2 8.58v151.89h-3.42v-151.89z"/>
	<path id="&lt;Path&gt;" fill-rule="evenodd" class="s0" d="m1010.64 8.58v151.9h-3.43v-151.9z"/>
	<path id="&lt;Path&gt;" class="s0" d="m1000.36 116.41v4.89l-3.43-4.9-72.07-102.92-0.01-0.01-3.41-4.88h-0.01v-0.01h3.42l0.01 0.01 72.07 102.92z"/>
	<path id="&lt;Path&gt;" class="s0" d="m996.93 126.19l3.43 4.89v4.89l-3.43-4.9-72.07-102.92-3.42-4.89v-4.89l3.42 4.89z"/>
	<path id="&lt;Path&gt;" class="s0" d="m1010.65 150.75v-19.57"/>
	<path id="&lt;Path&gt;" class="s0" d="m1017.51 140.98v19.56h-0.01"/>
	<path id="&lt;Path&gt;" class="s0" d="m996.93 140.88l3.43 4.9v4.88l-3.43-4.89-72.07-102.93-3.42-4.89v-4.89l3.42 4.89z"/>
	<path id="&lt;Path&gt;" class="s0" d="m1000.36 160.48h-3.42l-0.01-0.01-0.02-0.03-72.05-102.9-3.42-4.89v-4.89l3.42 4.9 72.07 102.92 3.4 4.86z"/>
	<path id="&lt;Path&gt;" class="s0" d="m925.78 8.68h-0.91"/>
	<path id="&lt;Path&gt;" class="s0" d="m921.45 8.68h-0.32"/>
	<path id="&lt;Path&gt;" class="s0" d="m858.71 84.54c0 42-34.05 76.05-76.05 76.05-42 0-76.05-34.05-76.05-76.05 0-22.43 9.71-42.59 25.16-56.5l0.29 0.35 1.19 1.41c-14.94 13.5-24.33 33.03-24.33 54.74 0 40.73 33.01 73.74 73.74 73.74 40.73 0 73.74-33.01 73.74-73.74 0-21.71-9.38-41.22-24.31-54.72l1.19-1.41 0.3-0.36c15.43 13.92 25.13 34.07 25.13 56.49z"/>
	<path id="&lt;Path&gt;" class="s0" d="m851.79 84.54c0 38.18-30.95 69.13-69.13 69.13-38.18 0-69.14-30.95-69.14-69.13 0-20.3 8.76-38.56 22.69-51.2l1.49 1.76c-13.44 12.23-21.87 29.85-21.87 49.44 0 36.91 29.92 66.83 66.83 66.83 36.91 0 66.83-29.92 66.83-66.83 0-19.58-8.42-37.19-21.84-49.42l1.48-1.77c13.92 12.65 22.66 30.9 22.66 51.19z"/>
	<path id="&lt;Path&gt;" class="s0" d="m844.88 84.55c0 34.36-27.86 62.21-62.22 62.21-34.36 0-62.22-27.85-62.22-62.21 0-18.18 7.79-34.54 20.22-45.92l1.48 1.77c-11.92 10.95-19.4 26.68-19.4 44.15 0 33.08 26.83 59.91 59.92 59.91 33.09 0 59.91-26.83 59.91-59.91 0-17.46-7.46-33.18-19.37-44.13l1.48-1.77c12.42 11.38 20.2 27.72 20.2 45.9z"/>
	<path id="&lt;Path&gt;" class="s1" d="m831.84 26.54l-0.3 0.35-1.18 1.41-2.97 3.54-1.48 1.76-2.96 3.53-1.48 1.77c-10.46-8.91-24.01-14.27-38.81-14.27-14.79 0-28.34 5.36-38.79 14.25q-0.01 0.01-0.02 0.01l-1.48-1.76-2.97-3.53-1.48-1.77-2.96-3.53-1.18-1.41-0.3-0.35q0.01-0.01 0.02-0.02c13.26-11.24 30.41-18.02 49.16-18.02 18.75 0 35.92 6.79 49.18 18.04z"/>
	<path id="&lt;Compound Path&gt;" class="s0" d="m746.83 42.41q-0.01 0-0.02 0.02l4.44 5.29q0.02-0.01 0.03-0.02zm71.67 0.02l-4.45 5.3 4.45-5.3zm1.73 1.53l-4.45 5.31c9.4 8.82 15.27 21.36 15.27 35.28 0 26.73-21.67 48.39-48.39 48.39-26.73 0-48.39-21.66-48.39-48.39 0-13.93 5.88-26.48 15.29-35.3l-4.46-5.31c-10.92 10.1-17.75 24.56-17.75 40.61 0 30.54 24.76 55.3 55.31 55.3 30.54 0 55.3-24.76 55.3-55.3 0-16.04-6.82-30.49-17.73-40.59z"/>
	<path id="&lt;Path&gt;" class="s0" d="m818.5 42.43l-4.44 5.29c-8.45-7.21-19.42-11.57-31.4-11.57-11.97 0-22.93 4.35-31.38 11.55l-4.45-5.29c9.66-8.22 22.16-13.18 35.83-13.18 13.67 0 26.19 4.97 35.84 13.2z"/>
	<path id="&lt;Path&gt;" fill-rule="evenodd" class="s1" d="m782.67 128.2c-23.72 0-42.9-19.17-42.9-42.9 0-23.72 19.18-42.89 42.9-42.89 23.72 0 42.9 19.17 42.9 42.89 0 23.73-19.18 42.9-42.9 42.9z"/>
</svg>