<svg version="1.2" xmlns="http://www.w3.org/2000/svg" viewBox="0 0 1640 164" width="1640" height="164">
	<style>
		.s0 { fill: #231f20 } 
		.s1 { fill: #000000 } 
		.s2 { fill: #00a99d } 
	</style>
	<path id="&lt;Path&gt;" class="s0" d="m223.95 124.55l0.41 1.14h-56.45l0.41-1.14 0.84-2.28h53.95z"/>
	<path id="&lt;Path&gt;" class="s0" d="m220.2 114.26l0.84 2.3h-49.81l0.83-2.3 0.42-1.13h47.31z"/>
	<path id="&lt;Path&gt;" class="s0" d="m216.46 103.99l1.25 3.43h-43.16l1.25-3.43z"/>
	<path id="&lt;Path&gt;" class="s0" d="m226.44 131.41l1.24 3.42h-63.1l1.25-3.42z"/>
	<path id="&lt;Path&gt;" class="s0" d="m236.83 159.97h-3.65l-0.01-0.02-9.13-25.11-1.25-3.42-2.08-5.72-0.41-1.14-0.84-2.28-0.41-1.14-1.66-4.57-0.84-2.3-0.41-1.13-0.84-2.29-1.24-3.42-1.25-3.42v-0.01l-1.25-3.43-15.43-42.4-1.82-5.01 1.82-5.01 1.82 5.01 17.26 47.41 1.25 3.43v0.01l1.24 3.42 1.25 3.42 0.83 2.29 0.41 1.13 0.84 2.3 1.66 4.57 0.42 1.14 0.83 2.28 0.42 1.14 2.08 5.72 1.24 3.42 9.14 25.11z"/>
	<path id="&lt;Path&gt;" class="s0" d="m258.71 159.95h-3.65l-9.14-25.11-1.24-3.42-2.08-5.72-0.42-1.14-0.83-2.28-0.41-1.14-1.66-4.57-0.84-2.3-0.41-1.13-0.84-2.29-1.24-3.42-1.25-3.42v-0.01l-1.25-3.43-26.38-72.47-1.82-5.01 1.82-5.01 1.83 5.01 28.2 77.48 1.24 3.43v0.01l1.25 3.42 1.24 3.42 0.84 2.29 0.41 1.13 0.84 2.3 1.66 4.57 0.42 1.14 0.83 2.28 0.42 1.14 2.07 5.72 1.25 3.42z"/>
	<path id="&lt;Path&gt;" class="s0" d="m269.65 159.95h-3.65l-9.14-25.11-1.24-3.42-2.08-5.72-0.42-1.14-0.83-2.28-0.42-1.14-1.66-4.57-0.83-2.3-0.42-1.13-0.83-2.29-1.24-3.42-1.25-3.42v-0.01l-1.25-3.43-31.85-87.5-1.81-4.99h3.63v-0.02l0.01 0.02 33.66 92.49 1.25 3.43 0.01 0.01 1.24 3.42 1.24 3.42 0.84 2.29 0.41 1.13 0.84 2.3 1.66 4.57 0.41 1.14 0.84 2.28 0.41 1.14 2.08 5.72 1.25 3.42z"/>
	<path id="&lt;Path&gt;" class="s0" d="m247.76 159.97h-3.64l-0.01-0.02-9.14-25.11-1.24-3.42-2.08-5.72-0.42-1.14-0.83-2.28-0.42-1.14-1.66-4.57-0.83-2.3-0.41-1.13-0.84-2.29-1.24-3.42-1.25-3.42v-0.01l-1.25-3.43-20.9-57.43-1.82-5 1.82-5.01 1.82 5.01 22.73 62.43 1.24 3.43 0.01 0.01 1.24 3.42 1.24 3.42 0.84 2.29 0.41 1.13 0.84 2.3 1.66 4.57 0.42 1.14 0.83 2.28 0.41 1.14 2.08 5.72 1.25 3.42 9.14 25.11z"/>
	<path id="&lt;Path&gt;" class="s0" d="m214.36 8.07l-10.93 30.05-1.83 5.01-26.73 73.43-15.78 43.37h-3.65l55.28-151.86z"/>
	<path id="&lt;Path&gt;" class="s0" d="m192.48 8.07l-1.82 5-3.65 10.01-1.82 5.01-26.38 72.47-1.25 3.43-1.24 3.43-1.25 3.41-0.83 2.3-0.41 1.13-0.84 2.3-1.66 4.56-0.42 1.15-0.83 2.28-0.42 1.14-2.07 5.72-1.25 3.42-9.14 25.1h-3.64l9.13-25.1 1.25-3.42 2.08-5.72 0.41-1.14 0.84-2.28 0.41-1.15 1.66-4.56 0.84-2.3 0.41-1.13 0.84-2.3 1.24-3.41 1.24-3.43h0.01l1.25-3.43 28.2-77.48 1.82-5.01 3.64-10z"/>
	<path id="&lt;Path&gt;" class="s0" d="m181.54 8.07l-1.82 4.99-31.84 87.5-1.25 3.43h-0.01l-1.25 3.43-1.24 3.41-0.84 2.3-0.41 1.13-0.83 2.3-1.66 4.56-0.42 1.15-0.83 2.28-0.41 1.14-2.08 5.72-1.25 3.42-9.14 25.1h-3.65l9.14-25.1 1.25-3.42 2.08-5.72 0.41-1.14 0.84-2.28 0.41-1.15 1.66-4.56 0.84-2.3 0.41-1.13 0.84-2.3 1.24-3.41 1.25-3.43 1.25-3.43 33.66-92.49z"/>
	<path id="&lt;Path&gt;" class="s0" d="m203.43 8.07l-1.83 4.99-3.65 10.04-1.82 5-3.64 10.02-1.83 5.01-20.9 57.43-1.24 3.43h-0.01l-1.25 3.43-1.24 3.41-0.84 2.3-0.41 1.13-0.84 2.3-1.66 4.56-0.41 1.15-0.83 2.28-0.42 1.14-2.07 5.72-1.25 3.42-9.14 25.1h-3.64l9.13-25.1 1.25-3.42 2.08-5.72 0.41-1.14 0.84-2.28 0.41-1.15 1.66-4.56 0.84-2.3 0.41-1.13 0.84-2.3 1.24-3.41 1.25-3.43 1.25-3.43 22.72-62.44 1.82-5.01 3.65-10.01 1.82-5.01 3.65-10.02z"/>
	<path id="&lt;Path&gt;" fill-rule="evenodd" class="s0" d="m508.19 8.08v151.89h-3.43v-151.89z"/>
	<path id="&lt;Path&gt;" fill-rule="evenodd" class="s0" d="m528.76 8.06v131.33h-3.43v-131.33z"/>
	<path id="&lt;Path&gt;" fill-rule="evenodd" class="s0" d="m539.04 8.07v121.03h-3.43v-121.03z"/>
	<path id="&lt;Path&gt;" fill-rule="evenodd" class="s0" d="m518.47 8.06v141.61h-3.42v-141.61z"/>
	<path id="&lt;Path&gt;" fill-rule="evenodd" class="s0" d="m608.55 156.53v3.43h-103.77v-3.43z"/>
	<path id="&lt;Path&gt;" fill-rule="evenodd" class="s0" d="m608.53 135.97v3.42h-83.2v-3.42z"/>
	<path id="&lt;Path&gt;" fill-rule="evenodd" class="s0" d="m608.55 125.69v3.42h-72.94v-3.42z"/>
	<path id="&lt;Path&gt;" fill-rule="evenodd" class="s0" d="m608.53 146.26v3.42h-93.48v-3.42z"/>
	<path id="&lt;Path&gt;" fill-rule="evenodd" class="s0" d="m1564.06 28.6v3.42h-25.12v-3.42z"/>
	<path id="&lt;Path&gt;" class="s0" d="m1640 83.98c0 41.95-34 75.95-75.94 75.95v-3.42c40.05 0 72.52-32.47 72.52-72.53 0-40.05-32.47-72.52-72.52-72.52v-3.42c41.94 0 75.94 34 75.94 75.94z"/>
	<path id="&lt;Path&gt;" class="s0" d="m1619.44 83.98c0 30.6-24.79 55.39-55.38 55.39v-3.42c28.69 0 51.96-23.27 51.96-51.97 0-28.69-23.27-51.96-51.96-51.96v-3.42c30.59 0 55.38 24.79 55.38 55.38z"/>
	<path id="&lt;Path&gt;" fill-rule="evenodd" class="s0" d="m1564.06 8.04v3.42h-45.68v-3.42z"/>
	<path id="&lt;Path&gt;" class="s0" d="m1609.17 83.98c0 24.92-20.2 45.12-45.11 45.12v-3.43c23.02 0 41.68-18.66 41.68-41.69q0-1.08-0.05-2.14 0-0.06 0-0.11-0.03-0.39-0.06-0.78 0-0.08-0.01-0.16 0-0.05-0.01-0.11-0.02-0.38-0.07-0.76 0-0.09-0.01-0.17-0.1-1.05-0.26-2.07-0.16-1.03-0.37-2.05c-3.87-19.02-20.68-33.33-40.84-33.33v-3.43c24.91 0 45.11 20.2 45.11 45.11z"/>
	<path id="&lt;Path&gt;" fill-rule="evenodd" class="s0" d="m1521.8 8.04v151.89h-3.43v-151.89z"/>
	<path id="&lt;Path&gt;" fill-rule="evenodd" class="s0" d="m1542.36 28.61v110.76h-3.42v-110.76z"/>
	<path id="&lt;Path&gt;" class="s0" d="m1629.72 83.98c0 36.27-29.4 65.67-65.66 65.67v-3.42c34.37 0 62.24-27.87 62.24-62.25 0-34.37-27.87-62.24-62.24-62.24v-3.42c36.26 0 65.66 29.4 65.66 65.66z"/>
	<path id="&lt;Path&gt;" fill-rule="evenodd" class="s0" d="m1552.65 38.89v90.2h-3.43v-90.2z"/>
	<path id="&lt;Path&gt;" fill-rule="evenodd" class="s0" d="m1532.08 18.32v131.34h-3.43v-131.34z"/>
	<path id="&lt;Path&gt;" fill-rule="evenodd" class="s0" d="m1564.06 135.95v3.42h-25.12v-3.42z"/>
	<path id="&lt;Path&gt;" fill-rule="evenodd" class="s0" d="m1564.06 125.67v3.43h-14.84v-3.43z"/>
	<path id="&lt;Path&gt;" fill-rule="evenodd" class="s0" d="m1564.06 38.87v3.43h-14.84v-3.43z"/>
	<path id="&lt;Path&gt;" fill-rule="evenodd" class="s0" d="m1564.06 18.32v3.43h-35.41v-3.43z"/>
	<path id="&lt;Path&gt;" fill-rule="evenodd" class="s0" d="m1564.06 156.5v3.43h-45.68v-3.43z"/>
	<path id="&lt;Path&gt;" class="s0" d="m1564.05 146.23v3.42l-35.4 0.01v-3.42z"/>
	<path id="&lt;Path&gt;" fill-rule="evenodd" class="s0" d="m441.96 8.04v151.89h-3.43v-151.89z"/>
	<path id="&lt;Path&gt;" fill-rule="evenodd" class="s0" d="m462.52 8.02v151.89h-3.42v-151.89z"/>
	<path id="&lt;Path&gt;" fill-rule="evenodd" class="s0" d="m472.8 8.04v151.89h-3.42v-151.89z"/>
	<path id="&lt;Path&gt;" fill-rule="evenodd" class="s0" d="m452.23 8.02v151.89h-3.42v-151.89z"/>
	<path id="&lt;Path&gt;" fill-rule="evenodd" class="s0" d="m643.89 8.06v151.88h-3.43v-151.88z"/>
	<path id="&lt;Path&gt;" fill-rule="evenodd" class="s0" d="m664.46 8.04v151.9h-3.43v-151.9z"/>
	<path id="&lt;Path&gt;" fill-rule="evenodd" class="s0" d="m674.74 8.05v151.89h-3.43v-151.89z"/>
	<path id="&lt;Path&gt;" fill-rule="evenodd" class="s0" d="m654.17 8.04v151.9h-3.43v-151.9z"/>
	<path id="&lt;Path&gt;" fill-rule="evenodd" class="s0" d="m1313.81 156.54v3.42h-113.41v-3.42z"/>
	<path id="&lt;Path&gt;" fill-rule="evenodd" class="s0" d="m1313.8 135.96v3.42h-92.84v-3.42z"/>
	<path id="&lt;Path&gt;" fill-rule="evenodd" class="s0" d="m1313.81 125.68v3.43h-82.58v-3.43z"/>
	<path id="&lt;Path&gt;" fill-rule="evenodd" class="s0" d="m1313.8 146.25v3.42h-103.13v-3.42z"/>
	<path id="&lt;Path&gt;" fill-rule="evenodd" class="s0" d="m1313.81 38.92v3.42h-82.58v-3.42z"/>
	<path id="&lt;Path&gt;" fill-rule="evenodd" class="s0" d="m1313.8 18.34v3.42h-103.13v-3.42z"/>
	<path id="&lt;Path&gt;" fill-rule="evenodd" class="s0" d="m1313.81 8.06v3.43h-113.41v-3.43z"/>
	<path id="&lt;Path&gt;" fill-rule="evenodd" class="s0" d="m1313.8 28.63v3.42h-92.84v-3.42z"/>
	<path id="&lt;Path&gt;" fill-rule="evenodd" class="s0" d="m1203.81 8.03v151.89h-3.42v-151.89z"/>
	<path id="&lt;Path&gt;" fill-rule="evenodd" class="s0" d="m1224.39 28.63v110.75h-3.43v-110.75z"/>
	<path id="&lt;Path&gt;" fill-rule="evenodd" class="s0" d="m1234.66 38.92v90.19h-3.43v-90.19z"/>
	<path id="&lt;Path&gt;" fill-rule="evenodd" class="s0" d="m1214.09 18.34v131.33h-3.42v-131.33z"/>
	<path id="&lt;Path&gt;" fill-rule="evenodd" class="s0" d="m1304.17 97.73v3.42h-72.94v-3.42z"/>
	<path id="&lt;Path&gt;" fill-rule="evenodd" class="s0" d="m1304.16 77.15v3.42h-72.93v-3.42z"/>
	<path id="&lt;Path&gt;" fill-rule="evenodd" class="s0" d="m1304.17 66.87v3.43h-72.94v-3.43z"/>
	<path id="&lt;Path&gt;" fill-rule="evenodd" class="s0" d="m1304.16 87.44v3.42h-72.93v-3.42z"/>
	<path id="&lt;Path&gt;" class="s0" d="m1214.09 156.54v3.38h-3.42v-3.38z"/>
	<path id="&lt;Path&gt;" fill-rule="evenodd" class="s0" d="m45.68 8.04v3.43h-45.68v-3.43z"/>
	<path id="&lt;Path&gt;" class="s0" d="m109.12 71.45c0 34.94-28.59 63.38-63.38 63.38 0 0 0-3.42 0-3.42 0 0.21 7.48-0.46 8.16-0.55 2.67-0.36 5.23-0.93 7.82-1.65 5.08-1.41 9.96-3.5 14.49-6.19 4.47-2.65 8.59-5.88 12.23-9.59 3.64-3.7 6.8-7.88 9.37-12.4 2.61-4.59 4.6-9.52 5.92-14.63 1.52-5.93 2.13-11.99 1.89-18.11-0.09-2.49-0.34-4.98-0.82-7.44-0.45-2.35-0.96-4.9-1.86-7.14-1.35-4.37-3.2-8.58-5.51-12.53-4.52-7.73-10.81-14.37-18.22-19.39q-0.01 0-0.02-0.01c-3.96-2.68-8.23-4.9-12.7-6.57-4.57-1.71-9.35-2.85-14.2-3.38q-3.28-0.36-6.58-0.36h-0.05v-3.43h0.02c34.99 0.02 63.44 28.41 63.44 63.41z"/>
	<path id="&lt;Path&gt;" fill-rule="evenodd" class="s0" d="m45.68 18.32v3.43h-35.4v-3.43z"/>
	<path id="&lt;Path&gt;" class="s0" d="m98.76 71.43c0 29.33-23.77 53.1-53.1 53.1v-3.42c27.43 0 49.68-22.25 49.68-49.68 0-27.43-22.24-49.67-49.66-49.68h-0.02v-3.43h0.02c29.32 0.01 53.08 23.78 53.08 53.11z"/>
	<path id="&lt;Path&gt;" fill-rule="evenodd" class="s0" d="m45.68 28.61v3.43h-25.11v-3.43z"/>
	<path id="&lt;Path&gt;" fill-rule="evenodd" class="s0" d="m13.7 18.32v85.64h-3.42v-85.64z"/>
	<path id="&lt;Path&gt;" class="s0" d="m13.7 103.98l0.08 55.98h-3.42l-0.08-55.98z"/>
	<path id="&lt;Path&gt;" class="s0" d="m3.42 8.04l0.09 151.9h-3.43l-0.08-151.9z"/>
	<path id="&lt;Path&gt;" fill-rule="evenodd" class="s0" d="m23.99 28.61v75.35h-3.42v-75.35z"/>
	<path id="&lt;Path&gt;" class="s0" d="m23.99 103.98l0.08 55.98h-3.42l-0.08-55.98z"/>
	<path id="&lt;Path&gt;" fill-rule="evenodd" class="s0" d="m34.27 38.88v65.08h-3.42v-65.08z"/>
	<path id="&lt;Path&gt;" class="s0" d="m34.27 110.81v3.43h-3.42v-3.43z"/>
	<path id="&lt;Path&gt;" class="s0" d="m34.27 121.1v3.43h-3.42v-3.43z"/>
	<path id="&lt;Path&gt;" class="s0" d="m34.27 103.96l0.08 55.99h-3.42l-0.08-55.99z"/>
	<path id="&lt;Path&gt;" fill-rule="evenodd" class="s0" d="m45.74 131.41v3.42h-14.81v-3.42z"/>
	<path id="&lt;Path&gt;" fill-rule="evenodd" class="s0" d="m45.65 110.81v3.43h-14.8v-3.43z"/>
	<path id="&lt;Path&gt;" fill-rule="evenodd" class="s0" d="m45.66 100.53v3.43h-14.81v-3.43z"/>
	<path id="&lt;Path&gt;" fill-rule="evenodd" class="s0" d="m45.65 121.1v3.43h-14.8v-3.43z"/>
	<path id="&lt;Path&gt;" fill-rule="evenodd" class="s0" d="m45.68 38.88v3.43h-14.83v-3.43z"/>
	<path id="&lt;Path&gt;" class="s0" d="m78.21 71.43c0 17.97-14.58 32.55-32.55 32.55v-3.43c16.08 0 29.12-13.04 29.12-29.12 0-16.08-13.03-29.11-29.1-29.12h-0.02v-3.43c17.97 0 32.55 14.57 32.55 32.55z"/>
	<path id="&lt;Path&gt;" class="s0" d="m88.48 71.43c0 23.65-19.17 42.82-42.82 42.82v-3.42c21.76 0 39.4-17.64 39.4-39.4 0-21.76-17.63-39.39-39.38-39.4h-0.02v-3.43c23.65 0 42.82 19.17 42.82 42.83z"/>
	<path id="&lt;Path&gt;" class="s0" d="m373.73 8.06h-3.64l-0.01 0.02-9.14 25.11-1.24 3.42-2.5 6.85-1.25 3.43-2.49 6.86-1.25 3.43-2.49 6.85-1.25 3.43-15.43 42.4-1.82 5.01 1.82 5.01 1.82-5.01 17.25-47.41 1.25-3.43 2.49-6.85 1.25-3.43 2.5-6.86 1.25-3.43 2.49-6.85 1.25-3.42 9.13-25.11z"/>
	<path id="&lt;Path&gt;" class="s0" d="m395.61 8.08h-3.64l-9.14 25.11-1.25 3.42-2.49 6.85-1.25 3.43-2.5 6.86-1.25 3.43-2.48 6.85-1.25 3.43-26.38 72.46-1.82 5.01 1.82 5.01 1.82-5.01 28.2-77.47 1.25-3.43 2.49-6.85 1.25-3.43 2.5-6.86 1.25-3.43 2.49-6.85 1.25-3.42z"/>
	<path id="&lt;Path&gt;" class="s0" d="m406.55 8.08h-3.64l-9.14 25.11-1.25 3.42-2.49 6.85-1.25 3.43-2.5 6.86-1.25 3.43-2.49 6.85-1.25 3.43-31.84 87.49-1.82 5h3.65l33.66-92.49 1.25-3.43 2.49-6.85 1.25-3.43 2.5-6.86 1.25-3.43 2.49-6.85 1.24-3.42z"/>
	<path id="&lt;Path&gt;" class="s0" d="m384.67 8.06h-3.65v0.02l-9.14 25.11-1.25 3.42-2.49 6.85-1.25 3.43-2.5 6.86-1.24 3.43-2.5 6.85-1.24 3.43-20.91 57.42-1.82 5.01 1.82 5.01 1.83-5.01 22.72-62.43 1.25-3.43 2.49-6.85 1.25-3.43 2.5-6.86 1.25-3.43 2.49-6.85 1.25-3.42 9.13-25.11z"/>
	<path id="&lt;Path&gt;" class="s0" d="m351.27 159.95l-33.66-92.49-1.25-3.43-2.5-6.85-1.25-3.43-2.49-6.86-1.25-3.43-2.49-6.85-1.25-3.42-9.14-25.11h-3.65l9.14 25.11 1.25 3.42 2.49 6.85 1.25 3.43 2.5 6.86 1.25 3.43 2.49 6.85 1.25 3.43 33.66 92.49z"/>
	<path id="&lt;Path&gt;" class="s0" d="m329.38 159.95l-1.82-5-3.65-10.02-1.82-5-26.37-72.47-1.25-3.43-2.49-6.85-1.25-3.43-2.5-6.86-1.25-3.43-2.49-6.85-1.25-3.42-9.13-25.11h-3.65l9.14 25.11 1.24 3.42 2.5 6.85 1.24 3.43 2.5 6.86 1.25 3.43 2.49 6.85 1.25 3.43 28.2 77.47 1.82 5.01 3.65 10.01z"/>
	<path id="&lt;Path&gt;" class="s0" d="m318.16 159.95l-1.82-5-31.84-87.49-1.25-3.43-2.5-6.85-1.25-3.43-2.49-6.86-1.25-3.43-2.49-6.85-1.25-3.42-9.14-25.11h-3.65l9.14 25.11 1.25 3.42 2.49 6.85 1.25 3.43 2.5 6.86 1.25 3.43 2.49 6.85 1.25 3.43 33.66 92.49z"/>
	<path id="&lt;Path&gt;" class="s0" d="m340.33 159.95l-1.82-5-3.65-10.03-1.82-5.01-3.65-10.02-1.82-5-20.91-57.43-1.24-3.43-2.5-6.85-1.24-3.43-2.5-6.86-1.25-3.43-2.49-6.85-1.25-3.42-9.14-25.11h-3.64l9.14 25.11 1.24 3.42 2.5 6.85 1.25 3.43 2.49 6.86 1.25 3.43 2.49 6.85 1.25 3.43 22.72 62.43 1.83 5.01 3.64 10.02 1.83 5.01 3.64 10.02z"/>
	<path id="&lt;Path&gt;" fill-rule="evenodd" class="s0" d="m1349.2 8.04v151.89h-3.43v-151.89z"/>
	<path id="&lt;Path&gt;" class="s0" d="m1369.77 8.04v151.89h-3.43v-151.89h3.42z"/>
	<path id="&lt;Path&gt;" fill-rule="evenodd" class="s0" d="m1380.04 8.04v151.89h-3.42v-151.89z"/>
	<path id="&lt;Path&gt;" fill-rule="evenodd" class="s0" d="m1359.48 8.04v151.89h-3.43v-151.89z"/>
	<path id="&lt;Path&gt;" fill-rule="evenodd" class="s0" d="m1455.55 8.04v151.89h-3.43v-151.89z"/>
	<path id="&lt;Path&gt;" fill-rule="evenodd" class="s0" d="m1476.12 8.04v151.89h-3.43v-151.89z"/>
	<path id="&lt;Path&gt;" fill-rule="evenodd" class="s0" d="m1486.39 8.04v151.89h-3.42v-151.89z"/>
	<path id="&lt;Path&gt;" fill-rule="evenodd" class="s0" d="m1465.83 8.04v151.89h-3.43v-151.89z"/>
	<path id="&lt;Path&gt;" class="s0" d="m1455.55 115.86v4.9l-3.43-4.9-72.07-102.93h-0.01l-3.41-4.88h-0.01v-0.01h3.42l0.01 0.01 72.07 102.92z"/>
	<path id="&lt;Path&gt;" class="s0" d="m1452.12 125.64l3.43 4.9v4.89l-3.43-4.9-72.07-102.92-3.42-4.9v-4.88l3.42 4.89z"/>
	<path id="&lt;Path&gt;" class="s0" d="m1452.12 140.33l3.43 4.9v4.89l-3.43-4.89-72.07-102.93-3.42-4.89v-4.89l3.42 4.89z"/>
	<path id="&lt;Path&gt;" class="s0" d="m1455.55 159.93h-3.42-0.01l-0.02-0.03-72.05-102.9-3.42-4.89v-4.89l3.42 4.89 72.07 102.93 3.4 4.86z"/>
	<path id="&lt;Path&gt;" fill-rule="evenodd" class="s0" d="m894.01 8.05v151.9h-3.43v-151.9z"/>
	<path id="&lt;Path&gt;" class="s0" d="m914.58 8.05v151.9h-3.43v-151.9h3.42z"/>
	<path id="&lt;Path&gt;" fill-rule="evenodd" class="s0" d="m924.85 8.05v151.89h-3.42v-151.89z"/>
	<path id="&lt;Path&gt;" fill-rule="evenodd" class="s0" d="m904.29 8.05v151.9h-3.43v-151.9z"/>
	<path id="&lt;Path&gt;" fill-rule="evenodd" class="s0" d="m1000.36 8.05v151.9h-3.43v-151.9z"/>
	<path id="&lt;Path&gt;" fill-rule="evenodd" class="s0" d="m1020.93 8.05v151.9h-3.43v-151.9z"/>
	<path id="&lt;Path&gt;" fill-rule="evenodd" class="s0" d="m1031.2 8.05v151.89h-3.42v-151.89z"/>
	<path id="&lt;Path&gt;" fill-rule="evenodd" class="s0" d="m1010.64 8.05v151.9h-3.43v-151.9z"/>
	<path id="&lt;Path&gt;" class="s0" d="m1000.36 115.88v4.89l-3.43-4.9-72.07-102.92-0.01-0.01-3.41-4.88h-0.01v-0.01h3.42l0.01 0.01 72.07 102.92z"/>
	<path id="&lt;Path&gt;" class="s0" d="m996.93 125.66l3.43 4.89v4.89l-3.43-4.9-72.07-102.92-3.42-4.89v-4.89l3.42 4.89z"/>
	<path id="&lt;Path&gt;" class="s0" d="m996.93 140.35l3.43 4.89v4.89l-3.43-4.89-72.07-102.93-3.42-4.89v-4.89l3.42 4.89z"/>
	<path id="&lt;Path&gt;" class="s0" d="m1000.36 159.95h-3.42l-0.01-0.01-0.02-0.03-72.05-102.9-3.42-4.89v-4.89l3.42 4.89 72.07 102.93 3.4 4.86z"/>
	<path id="&lt;Compound Path&gt;" fill-rule="evenodd" class="s1" d="m858.72 83.98c0 42-34.05 76.06-76.06 76.06-42.01 0-76.06-34.06-76.06-76.06 0-22.43 9.71-42.6 25.16-56.52l0.29 0.35 1.19 1.42c-14.94 13.5-24.33 33.02-24.33 54.75 0 40.73 33.02 73.75 73.75 73.75 40.73 0 73.75-33.02 73.75-73.75 0-21.72-9.38-41.24-24.31-54.73l1.19-1.42 0.29-0.35c15.44 13.92 25.14 34.08 25.14 56.5zm-6.91 0c0 38.18-30.96 69.14-69.15 69.14-38.19 0-69.14-30.96-69.14-69.14 0-20.31 8.75-38.57 22.69-51.22l1.48 1.77c-13.44 12.22-21.87 29.85-21.87 49.45 0 36.91 29.93 66.84 66.84 66.84 36.91 0 66.84-29.93 66.84-66.84 0-19.59-8.42-37.21-21.85-49.43l1.49-1.77c13.92 12.65 22.67 30.9 22.67 51.2zm-6.92 0c0 34.37-27.86 62.22-62.23 62.22-34.37 0-62.23-27.85-62.23-62.22 0-18.18 7.79-34.54 20.23-45.92l1.48 1.77c-11.93 10.95-19.4 26.68-19.4 44.15 0 33.09 26.82 59.92 59.92 59.92 33.09 0 59.93-26.83 59.93-59.92 0-17.46-7.47-33.18-19.38-44.13l1.48-1.77c12.42 11.38 20.2 27.73 20.2 45.9z"/>
	<path id="&lt;Path&gt;" class="s2" d="m831.85 25.96l-0.3 0.36-1.18 1.41-2.97 3.53-1.48 1.76-2.96 3.54-1.48 1.76c-10.46-8.9-24.01-14.27-38.82-14.27-14.8 0-28.34 5.37-38.79 14.25q-0.02 0.01-0.03 0.02l-1.48-1.76-2.96-3.54-1.48-1.76-2.97-3.53-1.18-1.41-0.3-0.36q0.01-0.01 0.03-0.02c13.26-11.24 30.41-18.02 49.16-18.02 18.76 0 35.93 6.79 49.19 18.04z"/>
	<path id="&lt;Compound Path&gt;" class="s1" d="m820.24 43.38l-4.45 5.31c9.4 8.83 15.27 21.37 15.27 35.29 0 26.73-21.67 48.4-48.4 48.4-26.73 0-48.4-21.67-48.4-48.4 0-13.93 5.88-26.48 15.29-35.31l-4.45-5.31c-10.92 10.11-17.76 24.56-17.76 40.62 0 30.55 24.77 55.31 55.32 55.31 30.55 0 55.32-24.76 55.32-55.31 0-16.04-6.83-30.49-17.74-40.6zm-1.73-1.53l-4.44 5.3 4.45-5.3zm-71.69-0.01q-0.01 0-0.02 0.01l4.44 5.3q0.01-0.01 0.02-0.02z"/>
	<path id="&lt;Path&gt;" class="s1" d="m818.51 41.85l-4.44 5.3c-8.45-7.22-19.42-11.57-31.41-11.57-11.97 0-22.94 4.34-31.39 11.55l-4.44-5.3c9.65-8.21 22.16-13.17 35.83-13.17 13.68 0 26.2 4.97 35.85 13.19z"/>
	<path id="&lt;Path&gt;" fill-rule="evenodd" class="s1" d="m782.67 127.64c-23.73 0-42.91-19.18-42.91-42.9 0-23.73 19.18-42.9 42.91-42.9 23.73 0 42.9 19.17 42.9 42.9 0 23.72-19.17 42.9-42.9 42.9z"/>
</svg>