<svg version="1.2" xmlns="http://www.w3.org/2000/svg" viewBox="0 0 1000 1000" width="1000" height="1000">
	<style>
		.s0 { fill: #000000 } 
		.s1 { fill: #00a99d } 
	</style>
	<path id="&lt;Path&gt;" class="s0" d="m1000 499.98c0 276.15-223.87 500.02-500.02 500.02-276.15 0-499.98-223.87-499.98-500.02 0-147.46 63.82-279.99 165.38-371.5l1.94 2.33 7.8 9.28c-98.25 88.72-159.99 217.13-159.99 359.89 0 267.79 217.1 484.85 484.85 484.85 267.79 0 484.85-217.06 484.85-484.85 0-142.73-61.66-271.03-159.84-359.75l7.8-9.32 1.97-2.33c101.46 91.51 165.24 224.01 165.24 371.4z"/>
	<path id="&lt;Path&gt;" class="s0" d="m954.55 499.98c0 251.03-203.52 454.55-454.55 454.55-251.03 0-454.55-203.52-454.55-454.55 0-133.45 57.54-253.5 149.19-336.65l9.74 11.61c-88.34 80.36-143.76 196.25-143.76 325.04 0 242.67 196.71 439.41 439.38 439.41 242.67 0 439.41-196.74 439.41-439.41 0-128.72-55.38-244.54-143.61-324.94l9.73-11.6c91.55 83.15 149.02 203.16 149.02 336.54z"/>
	<path id="&lt;Path&gt;" class="s0" d="m909.09 500.02c0 225.91-183.16 409.04-409.11 409.04-225.91 0-409.07-183.13-409.07-409.04 0-119.52 51.22-227.05 132.96-301.87l9.73 11.64c-78.42 72-127.56 175.37-127.56 290.23 0 217.52 176.39 393.9 393.94 393.9 217.56 0 393.94-176.38 393.94-393.9 0-114.79-49.07-218.12-127.38-290.12l9.73-11.61c81.63 74.79 132.82 182.24 132.82 301.73z"/>
	<path id="&lt;Path&gt;" class="s1" d="m823.33 118.62l-1.9 2.33-7.8 9.27-19.51 23.22-9.73 11.6-19.48 23.21-9.73 11.65c-68.76-58.56-157.83-93.84-255.16-93.84-97.26 0-186.34 35.28-255.06 93.69-0.03 0.04-0.1 0.07-0.1 0.11l-9.77-11.61-19.48-23.21-9.73-11.6-19.48-23.22-7.79-9.27-1.94-2.33c0.03-0.07 0.1-0.07 0.14-0.14 87.17-73.91 199.95-118.46 323.21-118.46 123.29 0 236.18 44.62 323.31 118.6z"/>
	<path id="&lt;Compound Path&gt;" class="s0" d="m735.69 223.75l-29.21 34.82 29.24-34.82zm11.36 10.06l-29.28 34.89c61.81 58.03 100.43 140.47 100.43 231.94 0 175.75-142.48 318.2-318.19 318.2-175.72 0-318.17-142.45-318.17-318.2 0-91.54 38.66-174.06 100.54-232.09l-29.28-34.89c-71.79 66.43-116.73 161.47-116.73 266.98 0 200.83 162.8 363.64 363.64 363.64 200.83 0 363.63-162.81 363.63-363.64 0-105.44-44.87-200.41-116.59-266.83z"/>
	<path id="&lt;Path&gt;" class="s0" d="m735.62 223.09l-29.21 34.82c-55.57-47.45-127.67-76.09-206.48-76.09-78.7 0-150.77 28.57-206.34 75.95l-29.21-34.82c63.47-54.01 145.7-86.6 235.55-86.6 89.92 0 172.22 32.66 235.69 86.74z"/>
	<path id="&lt;Path&gt;" fill-rule="evenodd" class="s0" d="m500 782c-155.94 0-281.99-126.05-281.99-281.99 0-155.95 126.05-282 281.99-282 155.94 0 281.99 126.05 281.99 282 0 155.94-126.05 281.99-281.99 281.99z"/>
</svg>