<?xml version="1.0" encoding="UTF-8"?>
<svg width="219px" height="40px" viewBox="0 0 219 40" version="1.1" xmlns="http://www.w3.org/2000/svg" xmlns:xlink="http://www.w3.org/1999/xlink">
    <!-- Generator: sketchtool 54.1 (76490) - https://sketchapp.com -->
    <title>4B82621C-5117-48C7-AADF-E02849F96C72</title>
    <desc>Created with sketchtool.</desc>
    <defs>
        <path d="M0.154543091,0.0797872352 L2.22044605e-16,0.236262115 L0,0.0797872352 L0.154543091,0.0797872352 Z M3.02405818,0.0797872352 L4.95328164,0.0797872352 L4.95328164,2.03312598 L3.02405818,0.0797872352 Z M4.95328164,9.12568666 L4.95328164,20.1690729 L0,20.1690729 L0,4.110489 L4.95328164,9.12568666 Z" id="path-1"></path>
        <path d="M13.9592482,10.587458 L13.9592482,17.6800187 L0.338292716,3.88880129 L3.84079183,0.342520934 L13.9592482,10.587458 Z M18.9125298,15.6026557 L20.7164688,17.4291439 L18.9125298,19.2556321 L18.9125298,15.6026557 Z" id="path-3"></path>
    </defs>
    <g id="Post-" stroke="none" stroke-width="1" fill="none" fill-rule="evenodd">
        <g id="Post-Format-Standard" transform="translate(-345.000000, -6044.000000)">
            <g id="Footer" transform="translate(0.000000, 5984.000000)">
                <g id="-Logo-/-White" transform="translate(345.000000, 60.000000)">
                    <g id="Group">
                        <g id="logo">
                            <ellipse id="Oval" fill="#FF2C54" cx="20.0000004" cy="20" rx="20.0000004" ry="20"></ellipse>
                            <g id="Group-17" transform="translate(9.285714, 7.857143)">
                                <g id="Group-18" transform="translate(2.251492, 4.103343)">
                                    <mask id="mask-2" fill="white">
                                        <use xlink:href="#path-1"></use>
                                    </mask>
                                    <use id="Combined-Shape" fill="#FFFFFF" xlink:href="#path-1"></use>
                                </g>
                                <g id="Group-19">
                                    <mask id="mask-4" fill="white">
                                        <use xlink:href="#path-3"></use>
                                    </mask>
                                    <use id="Combined-Shape" fill="#FFFFFF" xlink:href="#path-3"></use>
                                </g>
                                <polygon id="Rectangle-Copy" fill="#FFFFFF" points="16.2107403 5.62800745 21.1640219 3.64229304 21.1640219 20.5115942 16.2107403 20.5115942"></polygon>
                            </g>
                        </g>
                        <path d="M68.6784662,34.4113026 L63.2410463,34.4113026 L63.2410463,32.8271724 C61.6426366,34.3114099 59.6874684,35.0535175 57.375483,35.0535175 C54.4070079,35.0535175 51.9594799,34.0402552 50.0328254,32.0137002 C48.1061709,29.9871452 47.1428581,27.4753964 47.1428581,24.4783785 C47.1428581,21.5384466 48.1133065,19.0837831 50.0542325,17.1143141 C51.9951585,15.1448452 54.435551,14.1601255 57.375483,14.1601255 C60.9433617,14.0459534 63.5264672,14.9022314 65.1248768,16.7289852 L68.6784662,14.6310831 L68.6784662,34.4113026 Z M63.3694889,24.3927501 C63.3694889,22.7657976 62.8771291,21.4242955 61.8923946,20.3682035 C60.90766,19.3121115 59.6161073,18.7840734 58.0176977,18.7840734 C56.4478311,18.7840734 55.1562784,19.3406541 54.1430008,20.4538321 C53.1297233,21.5670102 52.6230921,22.9085123 52.6230921,24.4783788 C52.6230921,25.9911592 53.094045,27.3326614 54.035965,28.5029255 C55.034971,29.7588186 56.2765742,30.3867558 57.7608117,30.3867558 C59.4733935,30.3867558 60.8363027,29.8230395 61.8495802,28.6955899 C62.8628578,27.5681404 63.3694889,26.1338748 63.3694889,24.3927501 Z M96.9787371,34.3684891 L90.3853306,34.3684891 L84.4341389,27.6038252 L78.6970189,34.3684891 L71.8467263,34.3684891 L81.3086929,23.7505356 L73.6449281,14.6738979 L80.2383347,14.6738979 L84.4769532,20.0685033 L89.015272,14.6738979 L95.7799359,14.6738979 L87.9449138,23.7933499 L96.9787371,34.3684891 Z M106.526333,34.3684891 L101.088913,34.3684891 L101.088913,14.0744972 L106.526333,14.0744972 L106.526333,34.3684891 Z M116.37363,34.3684878 L110.936211,34.3684878 L110.936211,6.53917501 L116.245187,2.85714286 L116.37363,34.3684878 Z M138.294563,34.3684884 L132.857143,34.3684884 L132.857143,22.6373626 C132.857143,21.2102112 132.657345,20.2254915 132.257743,19.6831739 C131.772511,19.0837703 130.830605,18.784073 129.431997,18.784073 C126.806038,18.784073 125.493079,20.4110012 125.493079,23.6649064 L125.493079,34.3684884 L120.055659,34.3684884 L120.055659,14.5882689 L122.924219,17.0714999 C124.522629,15.2447461 126.634781,14.2742977 129.26074,14.1601256 C135.283319,14.1601256 138.294563,17.0143856 138.294563,22.7229912 L138.294563,34.3684884 Z M164.368494,30.2583129 C163.340945,31.6283783 162.113613,32.7700823 160.686461,33.6834592 C159.25931,34.5968361 157.06153,34.9964325 154.093055,34.8822604 C149.840143,34.9964325 146.729,33.9688989 144.759531,31.7996287 C142.761519,29.9728749 141.848156,27.4611261 142.019414,24.2643069 C141.733984,21.9808646 142.732975,19.6974566 145.016417,17.4140143 C147.299859,15.1305721 150.154119,13.9888681 153.579283,13.9888681 C157.118618,13.8746959 160.001421,15.0449426 162.227777,17.499643 C164.454134,19.9543434 165.567295,22.7800609 165.567295,25.97688 L147.071505,25.97688 C147.756537,28.945355 150.097031,30.5437406 154.093055,30.7720848 C156.719013,30.7720848 158.65991,29.9158068 159.915804,28.2032251 L164.368494,30.2583129 Z M160.087059,22.5517341 C158.945337,20.0399476 156.833185,18.6699028 153.750538,18.4415586 C150.439547,18.6699028 148.156139,20.0399476 146.900245,22.5517341 L160.087059,22.5517341 Z M201.488521,15.6158124 L190.228352,35.0535175 L184.448418,24.1358638 L178.839741,35.0535175 L167.493943,15.6158124 L173.659207,15.6158124 L178.754112,25.0349646 L184.448418,13.6463533 L190.228352,25.0349646 L195.280443,15.6158124 L201.488521,15.6158124 Z M218.571429,28.3744828 C218.571429,30.2012366 217.829321,31.7710797 216.345084,33.084059 C214.860846,34.3970383 212.919949,34.9964329 210.522335,34.8822608 C207.553859,34.6539166 205.213366,33.8547238 203.500784,32.4846584 L205.898387,28.8882548 C207.610969,29.5732874 209.323525,30.072783 211.036107,30.3867563 C212.063656,30.1869551 212.748678,29.7160022 213.091194,28.9738834 C212.977022,27.8892483 212.220643,27.0757842 210.822035,26.5334667 C208.281705,25.1919443 206.868846,24.4070228 206.583416,24.1786786 C205.070636,23.0369574 204.314257,21.6811839 204.314257,20.1113173 C204.314257,18.4272786 204.985008,17.0144199 206.32653,15.8726988 C207.668053,14.7309776 209.195082,14.1601256 210.907664,14.1601256 C212.448987,14.1601256 213.747676,14.5311794 214.803768,15.2732981 C215.717145,15.5587284 216.573423,16.1010378 217.372628,16.9002426 L214.803768,19.811617 C213.547874,19.1265843 212.163558,18.7840731 210.650778,18.7840731 C210.39389,18.7840731 210.144143,18.8911079 209.901527,19.1051806 C209.658911,19.3192533 209.537605,19.5690011 209.537605,19.8544313 C209.537605,20.3682059 210.322527,20.9533292 211.892393,21.6098188 C214.004577,22.4946527 215.445979,23.2367603 216.216641,23.8361639 C217.786507,25.0349711 218.571429,26.547729 218.571429,28.3744828 Z" id="papr-copy" fill="#FFFFFF" fill-rule="nonzero"></path>
                        <polygon id="Path" fill="#FF2C54" points="106.397889 3.71342931 106.397889 9.36492068 100.917655 9.36492068 100.917655 3.71342931"></polygon>
                    </g>
                </g>
            </g>
        </g>
    </g>
</svg>